<?xml version="1.0" encoding="utf-8"?>
<!-- Generator: Adobe Illustrator 24.1.3, SVG Export Plug-In . SVG Version: 6.00 Build 0)  -->
<svg version="1.1" id="Layer_1" xmlns="http://www.w3.org/2000/svg" xmlns:xlink="http://www.w3.org/1999/xlink" x="0px" y="0px"
	 viewBox="0 0 599.9 216.5" style="enable-background:new 0 0 599.9 216.5;" xml:space="preserve">
<g id="Layer_2_1_">
	<g id="layer">
		<path d="M526.5,62c44.2,0,73.4,30.7,73.4,77.1s-29.3,77.4-73.4,77.4c-45.9,0-76.5-31-76.5-77.4S480.7,62,526.5,62z M290.8,65.1
			v148.2l-33-6.8V71.6L290.8,65.1z M423,61.6v34.8l-19,3.5c-16.3,3.1-26.9,11.6-26.9,30.5v82.9l-33-6.8v-81.1
			c0-40.3,23.6-52.2,59.9-60.6L423,61.6z M72.1,62c13,0,28.8,7.2,37.8,20.2c9-11.8,24-19.6,42.5-19.8c23.2-0.3,52.1,14.3,52.1,58.1
			v92.8l-33-6.8v-86c0-14.7-10.6-25.2-26.3-25.2s-26.3,10.5-26.3,25.2v92.8l-33-6.8v-86c0-14.7-10.6-25.2-26.3-25.2
			c-15.9,0-26.6,10.5-26.6,25.2v92.8l-33-6.8V71.6l33-6.5v15.3C42.6,68.7,57,61.9,72.1,62z M526.5,93.3c-25.6,0-42.8,18.2-42.8,45.8
			s17.2,46.1,42.8,46.1c23.9,0,39.7-18.5,39.7-46.1S550.4,93.3,526.5,93.3z M275,0c12,0,20,8.4,20,21s-8,21-20,21
			c-12.5,0-20.8-8.4-20.8-21S262.5,0,275,0z"/>
	</g>
</g>
</svg>
