<?xml version="1.0" encoding="utf-8"?>
<!-- Generator: Adobe Illustrator 24.1.3, SVG Export Plug-In . SVG Version: 6.00 Build 0)  -->
<svg version="1.1" id="Layer_1" xmlns="http://www.w3.org/2000/svg" xmlns:xlink="http://www.w3.org/1999/xlink" x="0px" y="0px"
	 viewBox="0 0 599.9 216.5" style="enable-background:new 0 0 599.9 216.5;" xml:space="preserve">
<g id="Layer_2_1_">
	<g id="Layer_1-2">
		<path d="M191.9,182.8l7.5-17.4c8.1,6,18.9,9.2,29.5,9.2c7.9,0,12.8-3,12.8-7.6c-0.1-12.8-47-2.8-47.4-34.9
			c-0.1-16.3,14.4-28.9,34.9-28.9c12.2,0,24.4,3,33.1,9.9l-7,17.8c-8-5.1-17.9-8.7-27.3-8.7c-6.4,0-10.6,3-10.6,6.9
			c0.1,12.6,47.4,5.7,47.9,36.4c0,16.7-14.1,28.4-34.4,28.4C216,193.8,202.3,190.3,191.9,182.8"/>
		<path d="M479.4,159.1c-5.9,10.4-19.1,14.1-29.5,8.2c-10.4-5.9-14.1-19.1-8.2-29.5s19.1-14.1,29.5-8.2c3.4,1.9,6.3,4.8,8.2,8.2
			l20.7-11.5c-12.2-21.8-39.8-29.7-61.7-17.4c-21.8,12.2-29.7,39.8-17.4,61.7c12.2,21.8,39.8,29.7,61.7,17.4
			c7.3-4.1,13.4-10.1,17.4-17.4L479.4,159.1z"/>
		<rect x="275.7" y="65.6" width="25.9" height="126.5"/>
		<polygon points="510.2,65.6 510.2,192.1 536.1,192.1 536.1,154.2 566.8,192.1 599.9,192.1 560.9,147 597,105 565.3,105 
			536.1,139.9 536.1,65.6 		"/>
		<path d="M378.4,159.4c-3.7,6.2-11.5,10.8-20.2,10.8c-11.9,0-21.6-9.7-21.6-21.6c0-11.9,9.7-21.6,21.6-21.6
			c8.2,0,15.8,4.2,20.2,11.1V159.4z M378.4,105v10.3c-4.2-7.1-14.7-12.1-25.7-12.1c-22.7,0-40.6,20.1-40.6,45.2s17.9,45.4,40.6,45.4
			c11,0,21.5-5,25.7-12.1V192h25.9v-87H378.4z"/>
		<path d="M32,159.2c0,8.8-7.1,16-16,16s-16-7.1-16-16c0-8.8,7.1-16,16-16h16V159.2z"/>
		<path d="M40,159.2c0-8.8,7.1-16,16-16s16,7.1,16,16v39.9c0,8.8-7.1,16-16,16s-16-7.1-16-16V159.2z"/>
		<path d="M56,95.2c-8.8,0-16-7.1-16-16c0-8.8,7.1-16,16-16s16,7.1,16,16v16H56z"/>
		<path d="M56,103.3c8.8,0,16,7.1,16,16c0,8.8-7.1,16-16,16H16c-8.8,0-16-7.1-16-16c0-8.8,7.1-16,16-16H56z"/>
		<path d="M119.9,119.2c0-8.8,7.1-16,16-16c8.8,0,16,7.1,16,16c0,8.8-7.1,16-16,16l0,0h-16V119.2z"/>
		<path d="M111.9,119.2c0,8.8-7.1,16-16,16c-8.8,0-16-7.1-16-16v-40c0-8.8,7.1-16,16-16c8.8,0,16,7.1,16,16V119.2z"/>
		<path d="M96,183.2c8.8,0,16,7.1,16,16s-7.1,16-16,16s-16-7.1-16-16l0,0v-16H96z"/>
		<path d="M96,175.2c-8.8,0-16-7.1-16-16c0-8.8,7.1-16,16-16h40c8.8,0,16,7.1,16,16c0,8.8-7.1,16-16,16H96z"/>
	</g>
</g>
</svg>
