<svg xmlns="http://www.w3.org/2000/svg" viewBox="0 0 102.91 18.96"><defs><style>.cls-1{fill:#221e20;}</style></defs><g id="Layer_2" data-name="Layer 2"><g id="texto"><path class="cls-1" d="M16.3,1V3.53H9.47V18.64H6.81V3.53H0V1Zm20,8.83A8.83,8.83,0,0,1,27.2,19a8.82,8.82,0,0,1-9.09-9.14A8.82,8.82,0,0,1,27.2.68a8.83,8.83,0,0,1,9.12,9.14m-2.73,0c0-3.94-2.57-6.58-6.39-6.58S20.85,6,20.85,9.82s2.55,6.57,6.35,6.57a6.2,6.2,0,0,0,6.39-6.57m63.16,0a9.11,9.11,0,1,1-18.21,0,9.11,9.11,0,1,1,18.21,0M94,9.82c0-3.94-2.56-6.58-6.38-6.58S81.28,6,81.28,9.82s2.55,6.57,6.35,6.57A6.19,6.19,0,0,0,94,9.82M71.71,1V14.36L60.55,1H58.22V18.64h2.66V5.25L72.07,18.64h2.3V1ZM53.09.66l-6.74,8.2L39.6.66,37.52,2.41,45,11.5v7.14h2.64V11.5l7.49-9.12Zm48,.73h-.33v.43h.33c.13,0,.19-.07.19-.21s-.06-.22-.19-.22m1.86.6a2,2,0,0,1-4,0,2,2,0,1,1,4,0m-1.25.79-.4-.66a.5.5,0,0,0,.36-.51.52.52,0,0,0-.56-.55h-.7V2.78h.36V2.15h.16l.36.63Z"/></g></g></svg>