<?xml version="1.0" encoding="utf-8"?>
<!-- Generator: Adobe Illustrator 24.1.3, SVG Export Plug-In . SVG Version: 6.00 Build 0)  -->
<svg version="1.1" id="Layer_1" xmlns="http://www.w3.org/2000/svg" xmlns:xlink="http://www.w3.org/1999/xlink" x="0px" y="0px"
	 viewBox="0 0 599.9 216.5" style="enable-background:new 0 0 599.9 216.5;" xml:space="preserve">
<style type="text/css">
	.st0{fill-rule:evenodd;clip-rule:evenodd;}
</style>
<g id="Layer_2_1_">
	<g id="Layer_1-2">
		<g id="g12">
			<path id="path4" class="st0" d="M243.2,101c-12.6-12.7-29.8-19.8-47.7-19.7l0,0c-37.2,0-67.4,30.2-67.4,67.5
				c0,37.2,30.2,67.4,67.5,67.4c37.2,0,67.4-30.2,67.4-67.5C262.9,130.8,255.8,113.7,243.2,101L243.2,101z M224.1,177.4
				c-15.8,15.8-41.3,15.8-57.1,0c-15.8-15.8-15.8-41.3,0-57.1c15.8-15.8,41.3-15.8,57.1,0c15.8,15.7,15.8,41.2,0.2,57
				C224.2,177.2,224.2,177.3,224.1,177.4z"/>
			<path id="path6" class="st0" d="M384.7,101c-26.3-26.3-69-26.3-95.4,0c-26.3,26.3-26.3,69,0,95.4c26.3,26.3,69,26.3,95.4,0
				c26.3-26.1,26.6-68.5,0.5-94.9C385,101.3,384.9,101.2,384.7,101z M365.7,177.4c-15.8,15.8-41.3,15.8-57.1,0
				c-15.8-15.8-15.8-41.3,0-57.1c15.8-15.8,41.3-15.8,57.1,0c15.8,15.7,15.8,41.2,0.2,57C365.8,177.2,365.7,177.3,365.7,177.4z"/>
			<path id="path8" class="st0" d="M27,215.8l6.7,0.3h101.2l-0.3-6.7c-0.8-11.1-8.8-19.2-19.9-19.9l-6.8-0.3H47.2l80.9-80.9
				l-0.3-6.7c-0.3-10.9-9-19.6-19.9-19.9l-6.8-0.3H0L0.3,88c0.6,10.7,9.1,19.3,19.9,19.9l6.8,0.3h60.7L6.7,189.2l0.3,6.7
				C7.5,206.7,16.2,215.4,27,215.8z"/>
			<path id="path10" class="st0" d="M488.3,121.8c2.4,4,3,8.4,3.4,13.5l0.3,6.7v47.2l0.3,6.7c0.4,10.8,9.1,19.4,19.9,19.9l6.7,0.3
				V142l0.3-6.7c0.3-5.1,1-9.6,3.4-13.6c4.8-8.3,13.7-13.4,23.3-13.3c9.6,0,18.6,5.1,23.4,13.5c2.4,4,3,8.6,3.2,13.5l0.3,6.7v47.2
				l0.3,6.7c0.4,10.8,9.1,19.5,19.9,19.9l6.7,0.3v-80.9c0-29.8-24.1-54-53.9-54c-15.5,0-30.3,6.6-40.5,18.3
				c-10.2-11.6-24.9-18.2-40.4-18.2c-10.8,0-21.3,3.2-30.2,9.3c-5.2-5.9-17-9.3-23.7-9.3v134.9l6.7-0.3c11.3-0.7,19.4-8.8,19.9-19.9
				l0.3-6.7V142l0.3-6.7c0.3-5.1,1-9.6,3.4-13.5c7.4-12.8,23.7-17.3,36.6-9.9C482.6,114.2,486,117.6,488.3,121.8L488.3,121.8z"/>
		</g>
	</g>
</g>
</svg>
